<svg id="Group_336" data-name="Group 336" xmlns="http://www.w3.org/2000/svg" xmlns:xlink="http://www.w3.org/1999/xlink" width="100%" height="100%" viewBox="0 0 1234.069 325.42">
  <defs>
    <clipPath id="clip-path">
      <rect id="Rectangle_653" data-name="Rectangle 653" width="1234.069" height="325.42" fill="#fff"></rect>
    </clipPath>
  </defs>
  <g id="Group_335" data-name="Group 335" clip-path="url(#clip-path)">
    <path id="Path_1900" data-name="Path 1900" d="M9.628,94.765c0-32.331,20.345-66.04,51.831-85.877A4.814,4.814,0,0,0,56.327.742a127.587,127.587,0,0,0-40.08,40.1C5.618,57.872,0,76.52,0,94.765,0,123.014,15.4,143.24,30.293,162.8c15.567,20.446,31.666,41.588,31.666,73,0,23.035-14.84,59.691-39.672,81.161a4.814,4.814,0,1,0,6.3,7.283c24.515-21.2,43-59.218,43-88.444,0-34.663-17.1-57.119-33.634-78.835-14.567-19.131-28.325-37.2-28.325-62.2m225.456,89.123a5.989,5.989,0,0,0,1.78-.271c2.5-.776,3.816-3.072,4.22-5.519a53.287,53.287,0,0,0,.356-6.136,6,6,0,0,0-11.621-2.047,16.9,16.9,0,0,0-.463,9.75,6,6,0,0,0,5.728,4.223m193.293,61.727a7.236,7.236,0,0,1-5.46-2.272c-7.261-7.344-7.016-29.014-6.923-37.172.059-5.2.074-6.6-1.54-8.23L413,196.492h-2.01c-3.942,0-4.77,3.345-5.648,6.885q-.075.308-.158.639a41.833,41.833,0,0,0-23.822-7.524c-18.2,0-33.827,12.573-36.356,29.246a28.525,28.525,0,0,0,1.158,14.009c0,.02-.006.038-.006.057,0,5.811-2.493,5.811-3.982,5.811-7.747,0-11.233-10.783-15.314-26.017-3.966-14.809-8.067-30.123-21.461-30.123-14.767,0-18.833,20.283-20.741,39.433-.025-.279-.05-.557-.075-.829-2.038-22.34-2.882-31.587-9.9-31.587-5.538,0-6.565,5.695-8.61,17.042-1.876,10.413-5.781,32.081-13.044,32.081-11.069,0-12.286-27.634-12.744-38.037-.091-2.064-.162-3.7-.272-4.93-.474-5.356-3.477-6.156-5.224-6.156-1.371,0-4.63.562-5.288,5.764-.144,1.134-.245,2.6-.372,4.463-1.315,19.234-4.9,38.9-21.524,38.9a7.942,7.942,0,0,1-6.151-2.956c-2.224-2.657-3.059-6.644-2.291-10.939.572-3.2,1.982-8.065,3.345-12.772,2.488-8.594,4-14.069,4-17.642,0-4.372-3.227-7.31-9.59-8.73a115.252,115.252,0,0,0-14.441-1.724c-1.658-.134-3.4-.275-5.168-.437a17.569,17.569,0,0,0,1.63-7.249c0-11.122-7.714-18.889-18.759-18.889-8.1,0-16.7,5.812-16.7,16.584,0,9,6.575,13.621,15.172,16.174a85.29,85.29,0,0,1-9.25,5.884q-.68-.755-1.4-1.482a39.2,39.2,0,0,0-27.922-11.962,39.9,39.9,0,0,0-12.137,1.986,59.51,59.51,0,0,1,6.243-7.226,4.814,4.814,0,1,0-6.75-6.865,70.312,70.312,0,0,0-15.1,22.141c-2.594,1.9-12.9,9.864-12.9,16.76a8.666,8.666,0,0,0,4.028,7.3,14.389,14.389,0,0,0,3.89,1.783c1.411,14.831,14.994,29.892,36.23,29.892,21.762,0,35.823-10.922,35.823-27.825a35.029,35.029,0,0,0-4.413-16.613,97.032,97.032,0,0,0,8.546-5.41,59.278,59.278,0,0,0,7.222-6c3.737.466,7.476.769,10.94,1.049,5.034.408,12.371,1,15.082,2.05a130.7,130.7,0,0,1-3.52,13.772c-1.5,5.173-2.913,10.06-3.574,13.755-1.272,7.108.326,13.965,4.385,18.814a17.65,17.65,0,0,0,13.534,6.4c14.529,0,22.127-9.462,26.2-20.373,2.794,11.015,8.242,20.373,19.225,20.373,13.385,0,18.253-17.672,21.3-33.4.244,2.489.467,4.936.666,7.106.652,7.154,1.327,14.552,2.219,20.153.835,5.238,2.1,13.154,8.179,13.154,5.345,0,6.3-6.247,6.7-8.914.484-3.186.815-7.44,1.2-12.366,1.057-13.593,3.255-41.878,12.107-41.878,6.005,0,9.134,11.686,12.161,22.987,4.163,15.54,8.88,33.154,24.614,33.154,4.9,0,8.714-2.032,11.042-5.612,4.611,3.684,10.741,5.612,17.975,5.612,13.33,0,24.686-7.339,32.84-21.224,1.209-2.059,2.3-4.163,3.271-6.259,1.146,8.574,3.6,17.125,8.766,22.351a16.736,16.736,0,0,0,12.307,5.132,4.814,4.814,0,0,0,0-9.629M100.136,205.826c4.286-2.787,11.786-6.723,19.948-6.723,6.953,0,14.478,3.171,20.213,8.372q-2.826,1.276-5.845,2.481c-6.757,2.692-17.625,5.258-27.046,6.382a79.254,79.254,0,0,1-10.139.632,51.791,51.791,0,0,1,2.869-11.144m23.447,39.789c-15.212,0-24.221-10.081-26.273-19a93.92,93.92,0,0,0,12.257-.84c10.176-1.3,21.077-3.934,28.45-6.873,2.178-.868,5.14-2.114,8.486-3.7a24.941,24.941,0,0,1,3.275,12.22c0,11.394-9.792,18.2-26.195,18.2m43.375-56.491c-7.644-1.339-13.848-3.661-13.848-8.263a6.719,6.719,0,0,1,7.072-6.956c8.241,0,9.131,6.477,9.131,9.261a10.576,10.576,0,0,1-2.355,5.958m204.235,56.491c-6.049,0-10.78-1.783-13.681-5.157-2.78-3.234-3.813-7.824-2.986-13.277,1.548-10.21,11.48-21.06,26.836-21.06a31.335,31.335,0,0,1,20.976,7.98c-4.386,13.377-13.257,31.514-31.145,31.514" fill="#fff"></path>
    <path id="Path_1901" data-name="Path 1901" d="M1229.254,241.883c-3.234,0-8.284.962-13.631,1.981-4.309.821-9.193,1.751-11.347,1.751a7.234,7.234,0,0,1-5.46-2.272c-7.261-7.343-7.016-29.014-6.923-37.172.059-5.2.075-6.6-1.54-8.23l-1.454-1.449h-2.01c-3.941,0-4.77,3.345-5.647,6.885l-.159.639a41.832,41.832,0,0,0-23.821-7.524c-18.2,0-33.828,12.573-36.356,29.246a32.747,32.747,0,0,0-.374,4.612c-.047.106-.109.2-.149.314-2.8,7.885-15.453,21.969-30.718,21.969-15.917,0-27.469-11.52-27.469-27.391,0-19.272,10.916-26.139,21.132-26.139a37.338,37.338,0,0,1,21.331,7.372,4.814,4.814,0,0,0,5.943-7.574,47.077,47.077,0,0,0-27.274-9.426c-18.4,0-30.761,14.373-30.761,35.767a41.082,41.082,0,0,0,1.122,9.649,4.755,4.755,0,0,0-.52,2.133c0,5.378-5.4,8.591-10.617,8.591a8.263,8.263,0,0,1-6.212-2.6c-8.029-8.086-7.872-30.942-7.821-38.453.026-3.826-.071-5.29-1.481-6.642a5.265,5.265,0,0,0-3.432-1.43c-4.01.065-4.689,3.391-5.213,5.635-6.669,28.551-19.9,43.643-38.27,43.643a35.408,35.408,0,0,1-10.988-1.541,73.454,73.454,0,0,0,6.79-4.637c11.657-8.966,18.9-20.313,18.9-29.612,0-12.073-9.332-20.5-22.694-20.5-15.687,0-26.644,13.6-26.644,33.063,0,7.792,1.857,14.394,5.342,19.592a67.523,67.523,0,0,1-21.534,3.485c-3.958,0-6.781-.9-8.39-2.69-2.423-2.689-2.468-7.7-2.079-11.436.382-3.673,1.9-8.346,3.375-12.864,1.915-5.882,3.9-11.964,3.9-17.23,0-4.6-3.455-7.609-10.267-8.95a125.53,125.53,0,0,0-15.742-1.478c-2.368-.133-4.889-.273-7.437-.46a67.3,67.3,0,0,0,.439-6.92,18.521,18.521,0,0,0-18.324-18.672,16.183,16.183,0,0,0-16.283,16.044c0,11.706,10.833,16.109,23.205,18.032a170.3,170.3,0,0,1-5.372,21.883c-5.868,18.242-12.2,24.741-16.166,24.741-.811,0-7.743.082-13.955-30.319-7.251-35.486-10.645-73.8-12.455-92.277-.414-4.869-1.551-19.794-1.982-23.893-.764-7.271-9.949-6.245-9.6.767.239,4.756,1.348,17.552,2.133,25.368,2.408,27.228,4.986,49.627,7.863,67.71a22.36,22.36,0,0,0-12.078-3.5c-25.954,0-38.045,23.948-38.045,40.133a42.545,42.545,0,0,0,1.533,11.674,4.658,4.658,0,0,0-.283.56c-.7,1.8-3.748,3.773-5.835,3.773-5.514,0-8.743-12.325-11.592-23.2-4.046-15.441-8.631-32.941-23.418-32.941-15.413,0-19.444,17.578-21.765,33.567a46.508,46.508,0,0,0-3.785-11.331c-6.763-13.171-17.663-20.528-32.427-21.96l-.362-2.178c-3.949-23.775-8.034-48.36-13.41-74.469-2.783-13.515-5.922-26.924-9.215-40.192a4.764,4.764,0,0,0-.288-1.169c-3.684-14.79-7.557-29.4-11.367-43.749-2.137-8.044-4.345-16.362-6.431-24.389a4.814,4.814,0,1,0-9.318,2.421c2.092,8.052,4.3,16.383,6.443,24.44,3.8,14.317,7.666,28.893,11.336,43.631-2.013,36.911-5.133,68.16-9.813,98.255-1.483,9.534-3.236,19.143-5.233,28.741-8.181,3.494-16.84,7.532-25.918,11.766-31.36,14.628-66.9,31.207-98.013,31.207a4.815,4.815,0,0,0,0,9.629c33.244,0,69.816-17.059,102.084-32.111,6.57-3.065,13.042-6.082,19.3-8.865-8.662,37.873-20.971,74.99-35.317,105.856a4.814,4.814,0,1,0,8.731,4.059c15.478-33.3,28.628-73.71,37.492-114.582,11.755-4.795,22.419-8.23,31.11-8.845,5.356,32.059,10.725,62.482,18.841,91.113a4.814,4.814,0,1,0,9.263-2.625c-7.806-27.539-13.067-56.993-18.266-88.029,23.077,3.792,27.392,26.443,29.517,47.8.32,3.209.6,5.981,1.018,8.054,1.134,5.571,4.073,6.741,6.34,6.741,3.252,0,5.021-2.315,5.259-6.879.083-1.579.106-3.7.135-6.375.135-12.343.547-49.9,14.055-49.9,7.356,0,10.786,13.092,14.1,25.753,3.915,14.94,7.962,30.388,20.907,30.388a16.968,16.968,0,0,0,10.721-4.323c5.282,7.253,13.755,11.341,24.573,11.341A24.357,24.357,0,0,0,831.7,253.23c4.495-5.282,7.546-12.359,9.48-20.285,5.269,15.4,11.454,22.3,18.972,22.3,10.1,0,18.625-10.572,25.332-31.422a183.43,183.43,0,0,0,5.8-23.766c2.835.22,5.63.376,8.274.523,5.693.318,14.039.784,16.87,1.937-.288,3.644-1.855,8.457-3.376,13.128-1.626,5-3.307,10.16-3.8,14.847-.859,8.258.656,14.609,4.5,18.879,3.513,3.9,8.742,5.874,15.542,5.874a77.789,77.789,0,0,0,29.051-5.629c5.638,3.768,12.99,5.784,21.777,5.784,12.859,0,28.955-5.52,40.016-28.6,1.318,8.713,3.989,17.584,9.37,23a17.789,17.789,0,0,0,13.043,5.442,20.782,20.782,0,0,0,16.767-7.884c6.544,9.219,17.367,14.9,30.346,14.9,14.373,0,26.973-9.052,34.255-18.581a21.708,21.708,0,0,0,2.19,3.054c4.786,5.567,12.042,8.509,20.982,8.509,13.33,0,24.686-7.339,32.84-21.224,1.209-2.059,2.3-4.163,3.271-6.258,1.146,8.573,3.6,17.124,8.766,22.35a16.734,16.734,0,0,0,12.307,5.132c3.063,0,7.963-.934,13.149-1.922,4.455-.849,9.5-1.81,11.829-1.81a4.814,4.814,0,1,0,0-9.629M647.5,196.761q2.265-11.494,4.051-22.93c3.338-21.463,5.888-43.495,7.815-67.683.645,2.963,1.284,5.927,1.9,8.9,5.339,25.929,9.407,50.421,13.342,74.106.029.175.058.348.087.524-8.139.707-17.246,3.315-27.19,7.086m176.865,50.23a14.62,14.62,0,0,1-11.621,5.642c-19.027,0-21.08-16.1-21.08-23.025,0-9.556,7.155-30.505,28.416-30.505,6.912,0,11.56,5.336,14.225,10.569-.371,16.286-3.876,30.192-9.94,37.319m58.7-57.494c-8.269-1.247-14.957-3.591-14.957-8.538a6.546,6.546,0,0,1,6.654-6.416,8.78,8.78,0,0,1,8.7,9.044,58.161,58.161,0,0,1-.392,5.91m72.048,33.041c0-11.665,5.26-23.435,17.015-23.435,6.317,0,13.065,2.857,13.065,10.877,0,5.144-4.682,13.936-15.141,21.98A64.87,64.87,0,0,1,960,238.283c-3.772-4.5-4.881-10.385-4.881-15.745m191.976,23.077c-6.05,0-10.78-1.783-13.681-5.157-2.781-3.234-3.813-7.824-2.986-13.277,1.548-10.21,11.48-21.06,26.837-21.06a31.335,31.335,0,0,1,20.975,7.98c-4.386,13.377-13.257,31.514-31.145,31.514m-123.781-63.041a6.008,6.008,0,0,0,5.9-4.872,39.425,39.425,0,0,0,.394-4.2,6,6,0,0,0-11.72-1.928,15.353,15.353,0,0,0-.515,5.794,6,6,0,0,0,5.939,5.209" fill="#fff"></path>
  </g>
</svg>